<?xml version="1.0" encoding="UTF-8" standalone="no"?>
<!DOCTYPE svg PUBLIC "-//W3C//DTD SVG 1.1//EN" "http://www.w3.org/Graphics/SVG/1.1/DTD/svg11.dtd">
<svg width="100%" height="100%" viewBox="0 0 512 129" version="1.1" xmlns="http://www.w3.org/2000/svg" xmlns:xlink="http://www.w3.org/1999/xlink" xml:space="preserve" xmlns:serif="http://www.serif.com/" style="fill-rule:evenodd;clip-rule:evenodd;stroke-linejoin:round;stroke-miterlimit:2; fill:#999;">
    <g transform="matrix(1.57101,0,0,1.57101,-904.886,-304.213)">
        <g transform="matrix(97.7232,0,0,97.7232,582,270)">
            <path d="M0.308,-0L0.308,-0.575L0.02,-0.575L0.02,-0.72L0.74,-0.72L0.74,-0.575L0.453,-0.575L0.453,-0L0.308,-0Z" style="fill-rule:nonzero;"/>
        </g>
        <g transform="matrix(97.7232,0,0,97.7232,656.172,270)">
            <path d="M0.198,-0C0.172,-0 0.148,-0.006 0.126,-0.019C0.104,-0.032 0.086,-0.05 0.073,-0.072C0.06,-0.094 0.054,-0.118 0.054,-0.144L0.054,-0.576C0.054,-0.602 0.06,-0.626 0.073,-0.648C0.086,-0.67 0.104,-0.688 0.126,-0.701C0.148,-0.714 0.172,-0.72 0.198,-0.72L0.63,-0.72C0.656,-0.72 0.68,-0.714 0.702,-0.701C0.723,-0.688 0.741,-0.67 0.754,-0.648C0.767,-0.626 0.774,-0.602 0.774,-0.576L0.774,-0.144C0.774,-0.118 0.767,-0.094 0.754,-0.072C0.741,-0.05 0.723,-0.032 0.702,-0.019C0.68,-0.006 0.656,-0 0.63,-0L0.198,-0ZM0.204,-0.145L0.623,-0.145C0.624,-0.145 0.625,-0.145 0.627,-0.147C0.628,-0.148 0.628,-0.149 0.628,-0.151L0.628,-0.569C0.628,-0.571 0.628,-0.572 0.627,-0.573C0.625,-0.575 0.624,-0.575 0.623,-0.575L0.204,-0.575C0.202,-0.575 0.201,-0.575 0.2,-0.573C0.199,-0.572 0.198,-0.571 0.198,-0.569L0.198,-0.151C0.198,-0.149 0.199,-0.148 0.2,-0.147C0.201,-0.145 0.202,-0.145 0.204,-0.145Z" style="fill-rule:nonzero;"/>
        </g>
        <g transform="matrix(97.7232,0,0,97.7232,737.087,270)">
            <path d="M0.198,-0C0.172,-0 0.148,-0.006 0.126,-0.019C0.104,-0.032 0.086,-0.05 0.073,-0.072C0.06,-0.094 0.054,-0.118 0.054,-0.144L0.054,-0.576C0.054,-0.602 0.06,-0.626 0.073,-0.648C0.086,-0.67 0.104,-0.688 0.126,-0.701C0.148,-0.714 0.172,-0.72 0.198,-0.72L0.63,-0.72C0.656,-0.72 0.68,-0.714 0.702,-0.701C0.723,-0.688 0.741,-0.67 0.754,-0.648C0.767,-0.626 0.774,-0.602 0.774,-0.576L0.774,-0.144C0.774,-0.118 0.767,-0.094 0.754,-0.072C0.741,-0.05 0.723,-0.032 0.702,-0.019C0.68,-0.006 0.656,-0 0.63,-0L0.198,-0ZM0.204,-0.145L0.623,-0.145C0.624,-0.145 0.625,-0.145 0.627,-0.147C0.628,-0.148 0.628,-0.149 0.628,-0.151L0.628,-0.569C0.628,-0.571 0.628,-0.572 0.627,-0.573C0.625,-0.575 0.624,-0.575 0.623,-0.575L0.204,-0.575C0.202,-0.575 0.201,-0.575 0.2,-0.573C0.199,-0.572 0.198,-0.571 0.198,-0.569L0.198,-0.151C0.198,-0.149 0.199,-0.148 0.2,-0.147C0.201,-0.145 0.202,-0.145 0.204,-0.145Z" style="fill-rule:nonzero;"/>
        </g>
        <g transform="matrix(97.7232,0,0,97.7232,818.002,270)">
            <path d="M0.057,-0L0.057,-0.721L0.201,-0.721L0.201,-0.145L0.777,-0.145L0.777,-0L0.057,-0Z" style="fill-rule:nonzero;"/>
        </g>
    </g>
</svg>
